<svg width="35" height="35" viewBox="0 0 35 35" fill="none" xmlns="http://www.w3.org/2000/svg">
<path d="M22.0357 28.5587C22.0357 31.0118 20.6027 33 18.1496 33H8.9896C6.53651 33 5.10352 31.0118 5.10352 28.5587" stroke="#FCC436" stroke-width="2.22062" stroke-miterlimit="10" stroke-linecap="round"/>
<path d="M23.0072 23.0072C24.2334 23.0072 25.2279 24.2501 25.2279 25.783C25.2279 27.3159 24.2334 28.5587 23.0072 28.5587H4.13199C2.9058 28.5587 1.91138 27.3159 1.91138 25.783C1.91138 24.2501 2.9058 23.0072 4.13199 23.0072" stroke="#FCC436" stroke-width="2.22062" stroke-miterlimit="10" stroke-linecap="round"/>
<path d="M23.5624 23.0072H12.1339C11.9868 23.0073 11.8458 23.0657 11.7418 23.1696L9.87992 25.0314C9.85414 25.0572 9.82353 25.0777 9.78983 25.0917C9.75614 25.1056 9.72002 25.1128 9.68354 25.1128C9.64706 25.1128 9.61094 25.1056 9.57724 25.0917C9.54354 25.0777 9.51293 25.0572 9.48715 25.0314L7.6253 23.1696C7.52127 23.0657 7.38027 23.0073 7.23323 23.0072H3.57684C3.13513 23.0072 2.71151 22.8317 2.39918 22.5194C2.08684 22.2071 1.91138 21.7834 1.91138 21.3417C1.91138 20.9 2.08684 20.4764 2.39918 20.1641C2.71151 19.8517 3.13513 19.6763 3.57684 19.6763H23.5624C24.0041 19.6763 24.4277 19.8517 24.7401 20.1641C25.0524 20.4764 25.2279 20.9 25.2279 21.3417C25.2279 21.7834 25.0524 22.2071 24.7401 22.5194C24.4277 22.8317 24.0041 23.0072 23.5624 23.0072Z" fill="#FCC436" stroke="#FCC436" stroke-width="2.22062" stroke-miterlimit="10" stroke-linecap="round"/>
<path d="M4.13184 18.8435V18.8283C4.13184 15.0116 7.25458 13.0144 11.0713 13.0144H16.0677C19.8843 13.0144 23.0071 15.0268 23.0071 18.8435V18.8283" stroke="#FCC436" stroke-width="2.22062" stroke-miterlimit="10" stroke-linecap="round"/>
<path d="M16.4148 7.46286L16.9311 11.902" stroke="#FCC436" stroke-width="2.22062" stroke-miterlimit="10" stroke-linecap="round"/>
<path d="M17.4556 33H27.1229C27.6831 32.9999 28.2226 32.7882 28.6333 32.4071C29.044 32.0261 29.2954 31.5039 29.3373 30.9452L31.8202 7.46286" stroke="#FCC436" stroke-width="2.22062" stroke-miterlimit="10" stroke-linecap="round"/>
<path d="M25.228 7.46289L26.3383 3.02166L29.5999 1.91135" stroke="#FCC436" stroke-width="2.22062" stroke-linecap="round" stroke-linejoin="round"/>
<path d="M15.2351 7.46289H33" stroke="#FCC436" stroke-width="2.22062" stroke-miterlimit="10" stroke-linecap="round"/>
</svg>
