<svg width="31" height="31" viewBox="0 0 31 31" fill="none" xmlns="http://www.w3.org/2000/svg">
<path d="M27.557 10.1075C27.557 11.1136 27.1573 12.0785 26.446 12.7899C25.7346 13.5012 24.7697 13.9009 23.7637 13.9009C22.1249 13.9009 20.729 12.8539 20.2131 11.4125C19.5454 12.0042 18.6654 12.3836 17.6943 12.3836C16.8446 12.3836 16.0556 12.0953 15.4183 11.6249C14.781 12.0953 14.0072 12.3836 13.1423 12.3836C12.1712 12.3836 11.2911 12.0042 10.6235 11.4125C10.1076 12.8539 8.71163 13.9009 7.07291 13.9009C6.06685 13.9009 5.10199 13.5012 4.3906 12.7899C3.67921 12.0785 3.27955 11.1136 3.27955 10.1075C3.27955 8.22604 4.66033 6.66318 6.46597 6.37489C6.37493 6.11694 6.31424 5.84382 6.31424 5.55552C6.31424 4.95189 6.55403 4.37298 6.98086 3.94614C7.4077 3.51931 7.98661 3.27951 8.59025 3.27951C8.89371 3.27951 9.18201 3.34021 9.43996 3.44642C9.69791 2.47532 10.578 1.76217 11.6249 1.76217C12.0043 1.76217 12.3836 1.86839 12.6567 2.02012C13.1423 1.0035 14.1892 0.244831 15.4183 0.244831C16.6473 0.244831 17.6943 1.0035 18.1798 2.02012C18.453 1.86839 18.8323 1.76217 19.2116 1.76217C20.2586 1.76217 21.1387 2.47532 21.3966 3.44642C21.6545 3.34021 21.9428 3.27951 22.2463 3.27951C22.8499 3.27951 23.4289 3.51931 23.8557 3.94614C24.2825 4.37298 24.5223 4.95189 24.5223 5.55552C24.5223 5.84382 24.4616 6.11694 24.3706 6.37489C26.1762 6.66318 27.557 8.22604 27.557 10.1075ZM12.3836 15.4182C11.9812 15.4182 11.5952 15.5781 11.3107 15.8627C11.0261 16.1472 10.8663 16.5332 10.8663 16.9356C10.8663 17.338 11.0261 17.7239 11.3107 18.0085C11.5952 18.2931 11.9812 18.4529 12.3836 18.4529C12.786 18.4529 13.172 18.2931 13.4565 18.0085C13.7411 17.7239 13.9009 17.338 13.9009 16.9356C13.9009 16.5332 13.7411 16.1472 13.4565 15.8627C13.172 15.5781 12.786 15.4182 12.3836 15.4182ZM18.453 15.4182C18.0505 15.4182 17.6646 15.5781 17.38 15.8627C17.0955 16.1472 16.9356 16.5332 16.9356 16.9356C16.9356 17.338 17.0955 17.7239 17.38 18.0085C17.6646 18.2931 18.0505 18.4529 18.453 18.4529C18.8554 18.4529 19.2413 18.2931 19.5259 18.0085C19.8104 17.7239 19.9703 17.338 19.9703 16.9356C19.9703 16.5332 19.8104 16.1472 19.5259 15.8627C19.2413 15.5781 18.8554 15.4182 18.453 15.4182ZM27.906 13.385C26.9349 14.614 25.4479 15.4182 23.7637 15.4182C23.0809 15.4182 22.4284 15.2665 21.8063 15.0086C21.7911 18.8778 21.2297 23.5512 19.1358 25.9638C18.3467 26.859 17.3908 27.3445 16.177 27.4963V24.5223H14.6596V27.4963C13.4457 27.3445 12.4898 26.8742 11.7008 25.9638C9.59169 23.536 9.03028 18.8929 9.0151 15.0237C8.40817 15.2665 7.75571 15.4182 7.07291 15.4182C5.38866 15.4182 3.90166 14.614 2.93057 13.385C1.58013 14.7354 0.244873 15.4182 0.244873 15.4182C0.244873 15.4182 1.76221 18.4529 4.7969 18.4529C5.34314 18.4529 5.76799 18.3922 6.13215 18.3164C6.64805 24.1126 8.71163 30.5916 15.4183 30.5916C22.1249 30.5916 24.1885 24.1126 24.7044 18.3164C25.0686 18.3922 25.4934 18.4529 26.0397 18.4529C29.0743 18.4529 30.5917 15.4182 30.5917 15.4182C30.5917 15.4182 29.2564 14.7354 27.906 13.385Z" fill="#FCC436"/>
</svg>
